<?xml version="1.0"?>
<svg xmlns="http://www.w3.org/2000/svg" xmlns:xlink="http://www.w3.org/1999/xlink" xmlns:svgjs="http://svgjs.com/svgjs" version="1.1" width="512" height="512" x="0" y="0" viewBox="0 0 463.52 463.52" style="enable-background:new 0 0 512 512" xml:space="preserve" class=""><g>
<g xmlns="http://www.w3.org/2000/svg">
	<g>
		<g>
			<path d="M419.76,167.76c-0.121,0.002-0.241,0.002-0.362,0c-8.262-0.089-14.887-6.859-14.798-15.12c0-4.418-3.582-8-8-8H66.92     c-0.149-0.005-0.298-0.005-0.446-0.001c-4.417,0.112-7.906,3.784-7.794,8.201c-0.022,8.231-6.689,14.898-14.92,14.92     c-4.418,0-8,3.582-8,8v112c0,4.418,3.582,8,8,8c0.054-0.001,0.108-0.001,0.161-0.001c8.262-0.021,14.977,6.659,14.999,14.921     c0,4.418,3.582,8,8,8h329.92c4.418,0,8-3.582,8-8c0.022-8.231,6.689-14.898,14.92-14.92c4.418,0,8-3.582,8-8v-112     C427.76,171.342,424.178,167.76,419.76,167.76z M73.92,302.72C71.01,292.048,62.672,283.71,52,280.8v-98.12     c10.672-2.91,19.01-11.248,21.92-21.92h108.24c-8.288,5.801-15.496,13.009-21.298,21.298     c-27.439,39.201-17.903,93.224,21.298,120.662L73.92,302.72z M181.88,281.474c-27.469-27.548-27.405-72.148,0.143-99.617     c27.548-27.469,72.148-27.405,99.617,0.143l-0.08-0.04c13.23,13.194,20.658,31.115,20.64,49.8     c-0.006,18.709-7.455,36.647-20.703,49.857C253.949,309.086,209.349,309.022,181.88,281.474z M411.52,280.84     c-10.672,2.91-19.01,11.248-21.92,21.92H281.36c8.32-5.815,15.552-13.048,21.367-21.368     c27.4-39.201,17.834-93.192-21.367-120.592H389.6c2.91,10.672,11.248,19.01,21.92,21.92V280.84z" fill="#731739" data-original="#000000" style="" class=""/>
			<path d="M258.92,231.76c-5.856-3.604-12.368-6.01-19.16-7.08v-25.76c2.877,0.429,5.714,1.098,8.48,2     c3.059,1.139,6.22,1.983,9.44,2.52c4.533,0,6.8-2.48,6.8-7.44c0-2.4-1.8-4.533-5.4-6.4c-6.117-2.658-12.66-4.203-19.32-4.56     v-9.28c0-4.418-3.582-8-8-8s-8,3.582-8,8v9.84c-5.808,1.187-11.275,3.661-16,7.24c-6.747,4.563-10.792,12.175-10.8,20.32     c-0.106,5.997,2.512,11.72,7.12,15.56c2.435,1.753,5.136,3.104,8,4c2.837,1.064,5.753,1.907,8.72,2.52l2.96,0.52v28     c-3.278-0.54-6.513-1.315-9.68-2.32c-3.68-1.353-7.466-2.397-11.32-3.12c-4.667,0-7,2.813-7,8.44c0,3.067,3.84,5.84,11.52,8.32     c5.351,1.729,10.879,2.856,16.48,3.36v9.32c0,4.418,3.582,8,8,8s8-3.582,8-8v-9.56c6.462-0.788,12.616-3.211,17.88-7.04     c6.659-4.897,10.451-12.781,10.12-21.04C268.283,242.864,264.918,235.876,258.92,231.76z M223.76,222.16     c-1.776-0.349-3.527-0.817-5.24-1.4c-1.861-0.521-3.512-1.612-4.72-3.12c-0.931-1.467-1.392-3.184-1.32-4.92     c0.012-4.192,2.211-8.074,5.8-10.24c1.688-1.162,3.534-2.078,5.48-2.72V222.16z M252.24,250.96     c0.075,4.163-2.156,8.026-5.8,10.04c-2.066,1.269-4.321,2.2-6.68,2.76V238.8c2.522,0.627,4.964,1.54,7.28,2.72     C250.496,243.353,252.537,247.059,252.24,250.96z" fill="#731739" data-original="#000000" style="" class=""/>
			<path d="M422.44,110.16H41.12C18.444,110.204,0.066,128.564,0,151.24v161.04c0.066,22.676,18.444,41.036,41.12,41.08H422.4     c22.676-0.044,41.054-18.404,41.12-41.08V151.24C463.454,128.579,445.101,110.226,422.44,110.16z M447.36,312.28     c-0.066,13.736-11.184,24.854-24.92,24.92H41.12c-13.736-0.066-24.854-11.184-24.92-24.92V151.24     c0.066-13.736,11.184-24.854,24.92-24.92H422.4h0.04c13.736,0.066,24.854,11.184,24.92,24.92V312.28z" fill="#731739" data-original="#000000" style="" class=""/>
		</g>
	</g>
</g>
<g xmlns="http://www.w3.org/2000/svg">
</g>
<g xmlns="http://www.w3.org/2000/svg">
</g>
<g xmlns="http://www.w3.org/2000/svg">
</g>
<g xmlns="http://www.w3.org/2000/svg">
</g>
<g xmlns="http://www.w3.org/2000/svg">
</g>
<g xmlns="http://www.w3.org/2000/svg">
</g>
<g xmlns="http://www.w3.org/2000/svg">
</g>
<g xmlns="http://www.w3.org/2000/svg">
</g>
<g xmlns="http://www.w3.org/2000/svg">
</g>
<g xmlns="http://www.w3.org/2000/svg">
</g>
<g xmlns="http://www.w3.org/2000/svg">
</g>
<g xmlns="http://www.w3.org/2000/svg">
</g>
<g xmlns="http://www.w3.org/2000/svg">
</g>
<g xmlns="http://www.w3.org/2000/svg">
</g>
<g xmlns="http://www.w3.org/2000/svg">
</g>
</g></svg>
