<?xml version="1.0"?>
<svg xmlns="http://www.w3.org/2000/svg" xmlns:xlink="http://www.w3.org/1999/xlink" xmlns:svgjs="http://svgjs.com/svgjs" version="1.1" width="512" height="512" x="0" y="0" viewBox="0 0 512 512" style="enable-background:new 0 0 512 512" xml:space="preserve" class=""><g><path xmlns="http://www.w3.org/2000/svg" d="m473.984375 82.457031h-363.902344v-18.316406h12.195313c5.515625 0 9.988281-4.472656 9.988281-9.988281 0-3.285156-.300781-6.59375-.898437-9.8125-4.675782-25.691406-27.0625-44.339844-53.234376-44.339844-29.835937 0-54.105468 24.292969-54.105468 54.152344 0 5.515625 4.472656 9.988281 9.988281 9.988281h12.199219v304.3125c-11.027344 3.757813-18.984375 14.210937-18.984375 26.496094v97.015625h-17.242188c-5.515625 0-9.988281 4.472656-9.988281 9.988281 0 5.519531 4.472656 9.992187 9.988281 9.992187h68.140625l144.84375.054688h.003906c.351563 0 .703126-.019531 1.050782-.058594h19.660156c5.515625 0 9.988281-4.46875 9.988281-9.988281 0-5.515625-4.472656-9.988281-9.988281-9.988281h-11.570312c-1.476563-9.535156-5.5-23.746094-16.429688-33.746094-8.398438-7.6875-19.121094-11.484375-31.90625-11.453125-8.621094-13.179687-23.464844-21.386719-39.488281-21.386719-5.296875 0-10.425781.886719-15.226563 2.523438v-32.953125c0-12.285157-7.957031-22.738281-18.984375-26.496094v-217.941406h79.953125v16.933593c-22.480468 1.390626-40.347656 20.128907-40.347656 42.976563v122.679687c0 23.730469 19.300781 43.039063 43.027344 43.039063h60.179687c5.519531 0 9.992188-4.472656 9.992188-9.988281 0-5.519532-4.472657-9.992188-9.992188-9.992188h-60.179687c-12.707032 0-23.046875-10.34375-23.046875-23.0625v-122.675781c0-12.734375 10.339843-23.089844 23.046875-23.089844h231.742187c12.722657 0 23.074219 10.355469 23.074219 23.089844v122.675781c0 12.71875-10.351562 23.0625-23.074219 23.0625h-91.859375c-5.515625 0-9.988281 4.472656-9.988281 9.992188 0 5.515625 4.472656 9.988281 9.988281 9.988281h91.859375c23.742188 0 43.054688-19.308594 43.054688-43.039063v-122.679687c0-21.121094-15.28125-38.726563-35.359375-42.367187v-17.542969h41.832031c18.757813 0 34.019531-15.265625 34.019531-34.027344-.003906-18.761719-15.265625-34.027344-34.019531-34.027344zm-395.851563-62.476562c15.195313 0 28.371094 9.953125 32.671876 24.179687h-65.3125c4.277343-13.980468 17.292968-24.179687 32.640624-24.179687zm11.96875 44.160156v302.820313h-23.910156v-302.820313zm-42.894531 330.808594c0-4.417969 3.589844-8.007813 8.003907-8.007813h45.871093c4.339844 0 8.003907 3.667969 8.003907 8.007813v46.195312c-3.367188 3.765625-6.148438 8.097657-8.1875 12.871094-8.3125 1.714844-16.109376 6.328125-22.101563 13.238281-6.089844 7.019532-9.78125 15.652344-10.757813 24.710938h-20.832031zm121.804688 66.292969c1.785156 3.898437 5.851562 6.21875 10.121093 5.777343 9.972657-1.042969 17.5.882813 23.003907 5.878907 5.722656 5.199218 8.429687 12.910156 9.707031 19.066406h-123.628906c.835937-4.253906 2.769531-8.265625 5.675781-11.617188 3.914063-4.511718 9.109375-7.09375 14.269531-7.09375h.121094c4.554688 0 8.535156-3.082031 9.671875-7.496094 1.351563-5.238281 4.175781-9.785156 7.957031-13.25.023438-.023437.050782-.042968.074219-.066406 4.882813-4.4375 11.347656-7.078125 18.308594-7.078125 10.597656-.003906 20.300781 6.230469 24.71875 15.878907zm243.160156-293.890626h-202.15625v-16.839843h202.15625zm61.8125-36.820312h-363.902344v-28.09375h363.902344c7.738281 0 14.035156 6.300781 14.035156 14.046875s-6.296875 14.046875-14.035156 14.046875zm0 0" fill="#731739" data-original="#000000" style=""/><path xmlns="http://www.w3.org/2000/svg" d="m411.988281 237.167969h-60.09375c-5.519531 0-9.992187 4.472656-9.992187 9.988281 0 5.519531 4.472656 9.992188 9.992187 9.992188h60.09375c5.519531 0 9.992188-4.472657 9.992188-9.992188 0-5.515625-4.472657-9.988281-9.992188-9.988281zm0 0" fill="#731739" data-original="#000000" style=""/><path xmlns="http://www.w3.org/2000/svg" d="m352.828125 288.019531c-5.515625 0-9.988281 4.46875-9.988281 9.988281 0 5.515626 4.46875 9.988282 9.988281 9.988282h60.039063c5.515624 0 9.988281-4.46875 9.988281-9.988282 0-5.515624-4.46875-9.988281-9.988281-9.988281zm0 0" fill="#731739" data-original="#000000" style=""/><path xmlns="http://www.w3.org/2000/svg" d="m309.515625 239.824219-46.300781-29.023438c-3.222656-2.023437-7.320313-2.035156-10.558594-.035156l-47.542969 29.394531c-2.945312 1.820313-4.738281 5.035156-4.738281 8.496094v64.234375c0 5.515625 4.472656 9.988281 9.988281 9.988281h93.84375c5.515625 0 9.988281-4.472656 9.988281-9.988281v-64.601563c0-3.4375-1.765624-6.636718-4.679687-8.464843zm-15.296875 63.074219h-73.863281v-48.671876l37.515625-23.195312 36.347656 22.785156zm0 0" fill="#731739" data-original="#000000" style=""/><path xmlns="http://www.w3.org/2000/svg" d="m292.960938 356.160156h-.199219c-5.519531 0-9.992188 4.472656-9.992188 9.992188 0 5.515625 4.472657 9.988281 9.992188 9.988281h.199219c5.515624 0 9.988281-4.472656 9.988281-9.988281 0-5.519532-4.472657-9.992188-9.988281-9.992188zm0 0" fill="#731739" data-original="#000000" style=""/></g></svg>
